<?xml version="1.0" standalone="no"?>
<!DOCTYPE svg PUBLIC "-//W3C//DTD SVG 20010904//EN"
 "http://www.w3.org/TR/2001/REC-SVG-20010904/DTD/svg10.dtd">
<svg version="1.0" xmlns="http://www.w3.org/2000/svg"
 width="344.000000pt" height="344.000000pt" viewBox="0 0 344.000000 344.000000"
 preserveAspectRatio="xMidYMid meet">
<metadata>
Created by potrace 1.14, written by Peter Selinger 2001-2017
</metadata>
<g transform="translate(0.000000,344.000000) scale(0.100000,-0.100000)"
fill="#000000" stroke="none">
<path d="M1420 3131 c-151 -93 -468 -288 -704 -433 -346 -211 -431 -268 -436
-288 -3 -14 -6 -332 -5 -707 0 -591 2 -685 15 -697 8 -9 112 -75 230 -147 224
-138 247 -147 285 -109 20 20 20 32 20 695 0 370 3 676 5 678 3 2 192 118 420
257 228 139 427 261 442 271 l27 19 318 -196 c175 -108 325 -200 333 -205 8
-5 67 -40 130 -79 l115 -70 0 -674 c0 -648 1 -675 19 -695 35 -39 65 -28 280
104 112 69 215 134 228 144 l23 19 0 684 c1 375 -3 695 -8 710 -7 22 -73 66
-330 224 -362 222 -1006 616 -1053 645 -17 11 -42 19 -55 19 -13 0 -147 -76
-299 -169z m287 25 c-3 -7 4 -12 14 -12 14 0 16 3 6 16 -6 8 -8 12 -3 8 5 -4
17 -3 28 3 18 10 18 9 8 -11 -6 -12 -10 -23 -8 -25 3 -3 167 -104 658 -405 96
-59 274 -168 395 -242 l220 -135 0 -634 0 -633 -90 -56 c-49 -30 -111 -68
-137 -83 l-48 -28 0 634 0 634 -22 20 c-24 20 -52 38 -428 268 -124 76 -295
181 -380 233 -85 53 -167 100 -182 106 -24 9 -40 2 -149 -65 -67 -41 -137 -83
-155 -94 -315 -189 -735 -452 -739 -464 -3 -8 -6 -295 -5 -638 0 -493 -3 -623
-12 -623 -7 1 -69 36 -138 79 l-125 78 -2 631 -1 631 86 54 c48 30 158 98 245
151 86 53 226 138 310 190 83 51 256 156 382 234 127 77 236 145 244 149 11 7
11 13 3 30 -10 19 -9 20 9 16 11 -3 18 -11 16 -17z"/>
<path d="M1355 2189 c-71 -44 -168 -104 -215 -133 -47 -29 -91 -63 -97 -77
-15 -29 -19 -1383 -4 -1421 8 -22 65 -58 555 -356 86 -52 125 -70 140 -66 31
10 639 386 658 407 16 18 18 71 18 721 0 610 -2 704 -15 723 -22 31 -439 283
-468 283 -14 0 -35 -8 -47 -18 l-23 -18 1 -691 0 -690 -68 -42 -68 -42 -70 43
-69 43 0 682 c0 620 -2 685 -17 708 -28 43 -66 33 -211 -56z m720 -156 c115
-73 148 -92 173 -105 l22 -11 0 -647 0 -647 -264 -163 c-165 -102 -263 -167
-260 -175 4 -8 -8 -14 -33 -17 -46 -6 -48 -5 -28 15 14 14 1 24 -127 103 -79
47 -198 120 -265 162 l-123 75 0 646 1 646 128 78 c71 42 132 77 137 77 5 0 9
-273 9 -632 0 -409 3 -639 10 -652 13 -26 233 -164 263 -165 21 -1 61 21 200
107 20 12 42 25 49 28 6 3 16 18 20 32 5 15 9 312 9 660 -1 347 0 632 1 632 1
0 37 -21 78 -47z"/>
</g>
</svg>
